<svg width="25" height="25" viewBox="0 0 25 25" fill="none" xmlns="http://www.w3.org/2000/svg">
<path d="M24.7586 20.3945L21.2187 17.6582C21.2261 17.6043 21.25 17.5543 21.25 17.4996C21.2519 17.2047 21.148 16.9031 20.9136 16.6516C20.1589 15.8406 18.7468 14.6207 18.7468 10.6246C18.7468 7.58945 16.6187 5.15977 13.7492 4.56367V3.75C13.7492 3.05977 13.1898 2.5 12.5 2.5C11.8101 2.5 11.2507 3.05977 11.2507 3.75V4.56406C9.67536 4.89141 8.33434 5.77773 7.43864 7.0082L1.77614 2.63164C1.50348 2.41992 1.11051 2.46875 0.898793 2.74141L0.131606 3.72852C-0.0801128 4.00078 -0.0312846 4.39336 0.241372 4.60547L23.2238 22.3684C23.4964 22.5805 23.889 22.5313 24.1011 22.2586L24.8683 21.2715C25.08 20.9992 25.0312 20.6066 24.7586 20.3945ZM6.14176 12.3258C5.80543 14.9805 4.7195 15.9715 4.08629 16.652C3.85192 16.9039 3.74801 17.2051 3.74997 17.5C3.75426 18.1406 4.257 18.75 5.00387 18.75H14.4539L6.14176 12.3258ZM12.5 22.5C13.8797 22.5 14.9988 21.3809 14.9988 20H10.0011C10.0011 21.3809 11.1203 22.5 12.5 22.5Z" fill="white"/>
</svg>
