<svg width="25" height="26" viewBox="0 0 25 26" fill="none" xmlns="http://www.w3.org/2000/svg">
<path d="M8.4375 14.25H6.5625C6.21719 14.25 5.9375 14.5297 5.9375 14.875V22.375C5.9375 22.7203 6.21719 23 6.5625 23H8.4375C8.78281 23 9.0625 22.7203 9.0625 22.375V14.875C9.0625 14.5297 8.78281 14.25 8.4375 14.25ZM3.4375 18H1.5625C1.21719 18 0.9375 18.2797 0.9375 18.625V22.375C0.9375 22.7203 1.21719 23 1.5625 23H3.4375C3.78281 23 4.0625 22.7203 4.0625 22.375V18.625C4.0625 18.2797 3.78281 18 3.4375 18ZM13.4375 10.5H11.5625C11.2172 10.5 10.9375 10.7797 10.9375 11.125V22.375C10.9375 22.7203 11.2172 23 11.5625 23H13.4375C13.7828 23 14.0625 22.7203 14.0625 22.375V11.125C14.0625 10.7797 13.7828 10.5 13.4375 10.5ZM18.4375 6.75H16.5625C16.2172 6.75 15.9375 7.02969 15.9375 7.375V22.375C15.9375 22.7203 16.2172 23 16.5625 23H18.4375C18.7828 23 19.0625 22.7203 19.0625 22.375V7.375C19.0625 7.02969 18.7828 6.75 18.4375 6.75ZM23.4375 3H21.5625C21.2172 3 20.9375 3.27969 20.9375 3.625V22.375C20.9375 22.7203 21.2172 23 21.5625 23H23.4375C23.7828 23 24.0625 22.7203 24.0625 22.375V3.625C24.0625 3.27969 23.7828 3 23.4375 3Z" fill="white"/>
</svg>
