<svg width="25" height="26" viewBox="0 0 25 26" fill="none" xmlns="http://www.w3.org/2000/svg">
<g clip-path="url(#clip0_222_495)">
<path d="M10.4995 3.96928L6.15527 8.31254H1.17188C0.524414 8.31254 0 8.83696 0 9.48442V16.5157C0 17.1626 0.524414 17.6875 1.17188 17.6875H6.15527L10.4995 22.0308C11.2334 22.7647 12.5 22.2491 12.5 21.2022V4.79789C12.5 3.75004 11.2324 3.23637 10.4995 3.96928ZM22.541 13L24.7695 10.7715C25.0771 10.4639 25.0771 9.96488 24.7695 9.65727L23.6553 8.54301C23.3477 8.23539 22.8486 8.23539 22.541 8.54301L20.3125 10.7715L18.084 8.54301C17.7764 8.23539 17.2773 8.23539 16.9697 8.54301L15.8555 9.65727C15.5479 9.96488 15.5479 10.4639 15.8555 10.7715L18.084 13L15.856 15.2281C15.5483 15.5357 15.5483 16.0347 15.856 16.3423L16.9702 17.4566C17.2778 17.7642 17.7769 17.7642 18.0845 17.4566L20.3125 15.2286L22.541 17.4571C22.8486 17.7647 23.3477 17.7647 23.6553 17.4571L24.7695 16.3428C25.0771 16.0352 25.0771 15.5362 24.7695 15.2286L22.541 13Z" fill="white"/>
</g>
<defs>
<clipPath id="clip0_222_495">
<rect width="25" height="25" fill="white" transform="translate(0 0.5)"/>
</clipPath>
</defs>
</svg>
