<svg width="26" height="26" viewBox="0 0 26 26" fill="none" xmlns="http://www.w3.org/2000/svg">
<g clip-path="url(#clip0_267_272)">
<path d="M9.8329 4.97278L5.97135 8.83345H1.54167C0.966146 8.83345 0.5 9.2996 0.5 9.87512V16.1251C0.5 16.7002 0.966146 17.1668 1.54167 17.1668H5.97135L9.8329 21.0275C10.4852 21.6798 11.6111 21.2215 11.6111 20.2909V5.70932C11.6111 4.7779 10.4844 4.3213 9.8329 4.97278ZM19.9596 2.75576C19.4748 2.43762 18.8233 2.57173 18.5052 3.05741C18.1866 3.54222 18.322 4.1937 18.8069 4.51184C21.6832 6.39943 23.3997 9.5726 23.3997 13.0006C23.3997 16.4285 21.6832 19.6017 18.8069 21.4893C18.322 21.807 18.1866 22.4589 18.5052 22.9433C18.8108 23.4081 19.457 23.5752 19.9596 23.2449C23.4284 20.968 25.5 17.1377 25.5 13.0001C25.5 8.86253 23.4284 5.03267 19.9596 2.75576ZM21.3333 13.0001C21.3333 10.2427 19.9418 7.70758 17.6107 6.21887C17.125 5.90897 16.4809 6.05307 16.1732 6.54265C15.8655 7.03224 16.0091 7.68024 16.4948 7.99057C18.2201 9.09257 19.25 10.965 19.25 13.0001C19.25 15.0353 18.2201 16.9077 16.4948 18.0097C16.0091 18.3196 15.8655 18.9676 16.1732 19.4576C16.4557 19.9072 17.0898 20.1147 17.6107 19.7814C19.9418 18.2927 21.3333 15.7579 21.3333 13.0001ZM15.1801 9.66375C14.6775 9.38901 14.0434 9.57 13.7648 10.0739C13.4874 10.5778 13.671 11.2111 14.1749 11.4893C14.7352 11.797 15.0833 12.3764 15.0833 13.0001C15.0833 13.6243 14.7352 14.2032 14.1753 14.511C13.6714 14.7892 13.4878 15.4224 13.7652 15.9263C14.0443 16.4324 14.6788 16.6121 15.1806 16.3365C16.4058 15.6616 17.1671 14.3834 17.1671 12.9997C17.1671 11.616 16.4058 10.3382 15.1801 9.66375Z" fill="white"/>
</g>
<defs>
<clipPath id="clip0_267_272">
<rect width="25" height="25" fill="white" transform="translate(0.5 0.5)"/>
</clipPath>
</defs>
</svg>
